<svg width="29" height="29" viewBox="0 0 29 29" fill="none" xmlns="http://www.w3.org/2000/svg">
<mask id="mask0_10974_1990" style="mask-type:luminance" maskUnits="userSpaceOnUse" x="0" y="0" width="29" height="29">
<path d="M0 3.49383C0 1.56424 1.56424 0 3.49383 0H24.8061C26.7357 0 28.3 1.56424 28.3 3.49383V24.8061C28.3 26.7357 26.7357 28.3 24.8061 28.3H3.49383C1.56424 28.3 0 26.7357 0 24.8061V3.49383Z" fill="white"/>
</mask>
<g mask="url(#mask0_10974_1990)">
<path d="M0 3.49383C0 1.56424 1.56424 0 3.49383 0H24.8061C26.7357 0 28.3 1.56424 28.3 3.49383V24.8061C28.3 26.7357 26.7357 28.3 24.8061 28.3H3.49383C1.56424 28.3 0 26.7357 0 24.8061V3.49383Z" fill="black"/>
<path fill-rule="evenodd" clip-rule="evenodd" d="M19.3714 7.51268C18.892 6.93243 18.292 6.53575 17.5804 6.32556C16.8687 6.11241 15.8104 6.00879 14.3931 6.00879H8.10442C7.91056 6.00879 7.75342 6.16388 7.75342 6.35521V21.459C7.75342 21.918 8.13334 22.291 8.60073 22.291H11.0522C11.5195 22.291 11.8995 21.918 11.8995 21.459V9.48725H14.1097C14.9781 9.48725 15.6264 9.70929 16.0576 10.1563C16.2807 10.4079 16.4255 10.6803 16.4918 10.9823C16.5581 11.2813 16.5913 11.8319 16.5913 12.6253C16.5913 15.5709 16.5521 18.5431 16.5913 21.4798V21.5005V21.5213V21.542L16.5973 21.5627V21.5835L16.6034 21.6042V21.625L16.6124 21.6457L16.6185 21.6663L16.6245 21.687L16.6305 21.7077L16.6366 21.7256L16.6426 21.7463L16.6516 21.7639L16.6607 21.7818L16.6697 21.7996L16.6788 21.8172L16.6878 21.8351L16.6969 21.8529L16.7059 21.8706L16.715 21.8884L16.727 21.9062L16.7391 21.9239L16.7511 21.9417L16.7632 21.9564L16.7753 21.9713L16.7873 21.9861L16.7994 22.0008L16.8145 22.0157L16.8295 22.0305L16.8446 22.0452L16.8597 22.0601L16.8748 22.0749L16.8898 22.0867L16.9049 22.0985L16.92 22.1103L16.9351 22.1222L16.9501 22.1342L16.9682 22.146L16.9863 22.1578L17.0044 22.1696L17.0225 22.1786L17.0406 22.1873L17.0587 22.1962L17.0768 22.2051L17.0949 22.214L17.113 22.2229L17.1311 22.2319L17.1492 22.2377L17.1673 22.2437L17.1884 22.2495L17.2095 22.2555L17.2306 22.2613L17.2517 22.2673H17.2728L17.2939 22.2763H17.315L17.3361 22.2821H17.3572H17.3783L17.3994 22.285H17.4205H17.4416H19.8931C20.3605 22.285 20.7404 21.912 20.7404 21.4532V11.9237C20.7404 10.0497 20.2851 8.57843 19.3775 7.51563L19.3714 7.51268Z" fill="#14B496"/>
</g>
</svg>
